<svg width="58" height="58" viewBox="0 0 58 58" fill="none" xmlns="http://www.w3.org/2000/svg">
<path d="M14.5 0C12.5062 0 10.875 1.63125 10.875 3.625V54.375C10.875 56.3688 12.5062 58 14.5 58H50.75C52.7438 58 54.375 56.3688 54.375 54.375V14.5L39.875 0H14.5Z" fill="#E2E5E7"/>
<path d="M43.5 14.5H54.375L39.875 0V10.875C39.875 12.8687 41.5062 14.5 43.5 14.5Z" fill="#B0B7BD"/>
<path d="M54.375 25.375L43.5 14.5H54.375V25.375Z" fill="#CAD1D8"/>
<path d="M47.125 47.125C47.125 48.1219 46.3094 48.9375 45.3125 48.9375H5.4375C4.44062 48.9375 3.625 48.1219 3.625 47.125V29C3.625 28.0031 4.44062 27.1875 5.4375 27.1875H45.3125C46.3094 27.1875 47.125 28.0031 47.125 29V47.125Z" fill="#50BEE8"/>
<path d="M10.4873 43.4998C10.0088 43.4998 9.48682 43.2369 9.48682 42.6008V34.3702C9.48682 33.8482 10.0088 33.4712 10.4873 33.4712H13.806C20.4289 33.4712 20.2821 43.4998 13.9347 43.4998H10.4873ZM11.4008 35.2384V41.7308H13.806C17.7192 41.7308 17.8914 35.2384 13.806 35.2384H11.4008Z" fill="white"/>
<path d="M25.8285 43.6449C23.1478 43.7609 20.3638 41.9774 20.3638 38.4268C20.3638 34.8616 23.146 33.1089 25.8285 33.1089C28.3641 33.2376 31.0158 34.9921 31.0158 38.4268C31.0158 41.8633 28.3641 43.6449 25.8285 43.6449ZM25.669 34.9939C24.045 34.9939 22.2778 36.1394 22.2778 38.4286C22.2778 40.7051 24.0468 41.8651 25.669 41.8651C27.3365 41.8651 29.1181 40.7051 29.1181 38.4286C29.1181 36.1376 27.3365 34.9939 25.669 34.9939Z" fill="white"/>
<path d="M32.7212 38.4123C32.7212 35.6156 34.4757 33.2104 37.8089 33.2104C39.0704 33.2104 40.0709 33.5874 41.1276 34.5009C41.5191 34.8616 41.5626 35.4996 41.1711 35.9056C40.7796 36.2518 40.1851 36.2101 39.8371 35.8621C39.2444 35.2386 38.6354 35.0665 37.8089 35.0665C35.5777 35.0665 34.5065 36.647 34.5065 38.4141C34.5065 40.2121 35.5632 41.8633 37.8089 41.8633C38.6354 41.8633 39.4039 41.528 40.0709 40.9353C40.5186 40.5873 41.1421 40.7595 41.4031 41.1093C41.6351 41.4283 41.7493 41.9648 41.2436 42.4705C40.2286 43.4148 39.0124 43.6033 37.8071 43.6033C34.3017 43.6033 32.7212 41.209 32.7212 38.4123Z" fill="white"/>
<path d="M45.3125 48.9375H10.875V50.75H45.3125C46.3094 50.75 47.125 49.9344 47.125 48.9375V47.125C47.125 48.1219 46.3094 48.9375 45.3125 48.9375Z" fill="#CAD1D8"/>
</svg>
