<svg width="24" height="24" viewBox="0 0 24 24" fill="none" xmlns="http://www.w3.org/2000/svg">
<path d="M23.8959 11.7178C22.6687 9.72067 20.9461 8.05047 18.9144 6.88787C16.8185 5.68858 14.4275 5.05469 12 5.05469C9.57258 5.05469 7.18162 5.68858 5.0857 6.88787C3.05391 8.05047 1.3313 9.72067 0.104062 11.7178C-0.0346875 11.9436 -0.0346875 12.2282 0.104062 12.454C1.3313 14.4512 3.05386 16.1214 5.08561 17.284C7.18153 18.4832 9.57248 19.1171 12 19.1171C14.4274 19.1171 16.8184 18.4832 18.9143 17.284C20.946 16.1214 22.6687 14.4512 23.8958 12.454C24.0347 12.2282 24.0347 11.9436 23.8959 11.7178ZM7.31405 12.0859C7.31405 9.50209 9.41616 7.39994 12 7.39994C14.5839 7.39994 16.686 9.50209 16.686 12.0859C16.686 14.6698 14.5839 16.7719 12 16.7719C9.41616 16.7719 7.31405 14.6698 7.31405 12.0859ZM1.53698 12.0859C3.28884 9.43895 5.90775 7.5993 8.89866 6.84423C7.10962 7.9068 5.9078 9.85853 5.9078 12.0859C5.9078 14.3134 7.10967 16.2651 8.89875 17.3277C5.9078 16.5726 3.28884 14.733 1.53698 12.0859ZM15.1013 17.3277C16.8904 16.2652 18.0922 14.3134 18.0922 12.0859C18.0922 9.85853 16.8904 7.9068 15.1014 6.84423C18.0923 7.5993 20.7112 9.43895 22.463 12.0859C20.7112 14.7329 18.0922 16.5726 15.1013 17.3277Z" fill="black"/>
<path d="M12.0001 9.81787C10.7494 9.81787 9.73193 10.8354 9.73193 12.0861C9.73193 13.3367 10.7494 14.3542 12.0001 14.3542C13.2508 14.3542 14.2683 13.3367 14.2683 12.0861C14.2683 10.8354 13.2508 9.81787 12.0001 9.81787ZM12.0001 12.948C11.5249 12.948 11.1382 12.5613 11.1382 12.0861C11.1382 11.6108 11.5249 11.2241 12.0001 11.2241C12.4754 11.2241 12.8621 11.6108 12.8621 12.0861C12.8621 12.5613 12.4754 12.948 12.0001 12.948Z" fill="black"/>
</svg>
