<svg width="12" height="12" viewBox="0 0 12 12" fill="none" xmlns="http://www.w3.org/2000/svg">
<path d="M9.375 12H2.625C2.005 12 1.5 11.4955 1.5 10.875V5.625C1.5 5.00446 2.005 4.5 2.625 4.5H9.375C9.995 4.5 10.5 5.00446 10.5 5.625V10.875C10.5 11.4955 9.995 12 9.375 12ZM2.625 5.25C2.41846 5.25 2.25 5.418 2.25 5.625V10.875C2.25 11.082 2.41846 11.25 2.625 11.25H9.375C9.58154 11.25 9.75 11.082 9.75 10.875V5.625C9.75 5.418 9.58154 5.25 9.375 5.25H2.625Z" fill="#4DCFE0"/>
<path d="M8.625 5.25C8.418 5.25 8.25 5.082 8.25 4.875V3C8.25 1.75946 7.24054 0.75 6 0.75C4.75946 0.75 3.75 1.75946 3.75 3V4.875C3.75 5.082 3.582 5.25 3.375 5.25C3.168 5.25 3 5.082 3 4.875V3C3 1.34546 4.34546 0 6 0C7.65454 0 9 1.34546 9 3V4.875C9 5.082 8.832 5.25 8.625 5.25Z" fill="#4DCFE0"/>
</svg>
