<svg width="58" height="58" viewBox="0 0 58 58" fill="none" xmlns="http://www.w3.org/2000/svg">
<path d="M14.5 0C12.5062 0 10.875 1.63125 10.875 3.625V54.375C10.875 56.3688 12.5062 58 14.5 58H50.75C52.7438 58 54.375 56.3688 54.375 54.375V14.5L39.875 0H14.5Z" fill="#E2E5E7"/>
<path d="M43.5 14.5H54.375L39.875 0V10.875C39.875 12.8687 41.5062 14.5 43.5 14.5Z" fill="#B0B7BD"/>
<path d="M54.375 25.375L43.5 14.5H54.375V25.375Z" fill="#CAD1D8"/>
<path d="M47.125 47.125C47.125 48.1219 46.3094 48.9375 45.3125 48.9375H5.4375C4.44062 48.9375 3.625 48.1219 3.625 47.125V29C3.625 28.0031 4.44062 27.1875 5.4375 27.1875H45.3125C46.3094 27.1875 47.125 28.0031 47.125 29V47.125Z" fill="#F15642"/>
<path d="M11.5259 34.3413C11.5259 33.8628 11.9029 33.3408 12.5101 33.3408H15.8578C17.7428 33.3408 19.4393 34.6023 19.4393 37.0202C19.4393 39.3112 17.7428 40.5872 15.8578 40.5872H13.4381V42.5012C13.4381 43.1392 13.0321 43.4999 12.5101 43.4999C12.0316 43.4999 11.5259 43.1392 11.5259 42.5012V34.3413ZM13.4381 35.166V38.7765H15.8578C16.8293 38.7765 17.5978 37.9192 17.5978 37.0202C17.5978 36.007 16.8293 35.166 15.8578 35.166H13.4381Z" fill="white"/>
<path d="M22.2778 43.4998C21.7993 43.4998 21.2773 43.2388 21.2773 42.6026V34.3702C21.2773 33.85 21.7993 33.4712 22.2778 33.4712H25.5965C32.2194 33.4712 32.0744 43.4998 25.727 43.4998H22.2778ZM23.1913 35.2402V41.7326H25.5965C29.5097 41.7326 29.6837 35.2402 25.5965 35.2402H23.1913Z" fill="white"/>
<path d="M34.4232 35.3561V37.6597H38.1189C38.6409 37.6597 39.1629 38.1817 39.1629 38.6874C39.1629 39.1659 38.6409 39.5574 38.1189 39.5574H34.4232V42.6006C34.4232 43.1081 34.0625 43.4978 33.555 43.4978C32.917 43.4978 32.5273 43.1081 32.5273 42.6006V34.3682C32.5273 33.8481 32.9188 33.4692 33.555 33.4692H38.6427C39.2807 33.4692 39.6577 33.8481 39.6577 34.3682C39.6577 34.8322 39.2807 35.3542 38.6427 35.3542H34.4232V35.3561Z" fill="white"/>
<path d="M45.3125 48.9375H10.875V50.75H45.3125C46.3094 50.75 47.125 49.9344 47.125 48.9375V47.125C47.125 48.1219 46.3094 48.9375 45.3125 48.9375Z" fill="#CAD1D8"/>
</svg>
