<svg width="52" height="38" viewBox="0 0 52 38" fill="none" xmlns="http://www.w3.org/2000/svg">
<rect x="0.5" y="0.5" width="51" height="37" rx="3.5" stroke="#333333"/>
<path d="M33.8047 11.6406V10.5156C33.8047 8.57711 32.2276 7 30.2891 7H21.6641C19.7255 7 18.1484 8.57711 18.1484 10.5156V11.6406H33.8047Z" fill="#333333"/>
<path d="M19.5547 21.9531V27.6719V28.8906V29.5938C19.5547 30.3704 20.1843 31 20.9609 31H30.9922C31.7689 31 32.3984 30.3704 32.3984 29.5938V28.8906V27.6719V21.9531H19.5547ZM27.8516 27.9531H24.1016C23.7133 27.9531 23.3984 27.6383 23.3984 27.25C23.3984 26.8617 23.7133 26.5469 24.1016 26.5469H27.8516C28.2399 26.5469 28.5547 26.8617 28.5547 27.25C28.5547 27.6383 28.2399 27.9531 27.8516 27.9531ZM27.8516 24.9531H24.1016C23.7133 24.9531 23.3984 24.6383 23.3984 24.25C23.3984 23.8617 23.7133 23.5469 24.1016 23.5469H27.8516C28.2399 23.5469 28.5547 23.8617 28.5547 24.25C28.5547 24.6383 28.2399 24.9531 27.8516 24.9531Z" fill="#333333"/>
<path d="M34.4609 13.0469H17.5391C15.6005 13.0469 14.0234 14.624 14.0234 16.5625V22.1875C14.0234 24.126 15.6005 25.7031 17.5391 25.7031H18.1484V21.9531H17.7266C17.3382 21.9531 17.0234 21.6383 17.0234 21.25C17.0234 20.8617 17.3382 20.5469 17.7266 20.5469H18.8516H33.1016H34.2266C34.6149 20.5469 34.9297 20.8617 34.9297 21.25C34.9297 21.6383 34.6149 21.9531 34.2266 21.9531H33.8047V25.7031H34.4609C36.3995 25.7031 37.9766 24.126 37.9766 22.1875V16.5625C37.9766 14.624 36.3995 13.0469 34.4609 13.0469ZM19.9766 17.4531H17.7266C17.3382 17.4531 17.0234 17.1383 17.0234 16.75C17.0234 16.3617 17.3382 16.0469 17.7266 16.0469H19.9766C20.3649 16.0469 20.6797 16.3617 20.6797 16.75C20.6797 17.1383 20.3649 17.4531 19.9766 17.4531Z" fill="#333333"/>
</svg>
