<svg width="22" height="22" viewBox="0 0 22 22" fill="none" xmlns="http://www.w3.org/2000/svg">
<path d="M18.7773 5.54297H18.1758V3.22266C18.1758 1.44568 16.7301 0 14.9531 0H7.04688C5.2699 0 3.82422 1.44568 3.82422 3.22266V5.54297H3.22266C1.44568 5.54297 0 6.98865 0 8.76562V13.9219C0 15.6988 1.44568 17.1445 3.22266 17.1445H3.82422V20.0664C3.82422 21.1326 4.69163 22 5.75781 22H16.2422C17.3084 22 18.1758 21.1326 18.1758 20.0664V17.1445H18.7773C20.5543 17.1445 22 15.6988 22 13.9219V8.76562C22 6.98865 20.5543 5.54297 18.7773 5.54297ZM5.11328 3.22266C5.11328 2.15647 5.98069 1.28906 7.04688 1.28906H14.9531C16.0193 1.28906 16.8867 2.15647 16.8867 3.22266V5.54297H5.11328V3.22266ZM16.8867 20.0664C16.8867 20.4218 16.5976 20.7109 16.2422 20.7109H5.75781C5.40242 20.7109 5.11328 20.4218 5.11328 20.0664V13.707H16.8867V20.0664ZM20.7109 13.9219C20.7109 14.9881 19.8435 15.8555 18.7773 15.8555H18.1758V13.707H18.5625C18.9185 13.707 19.207 13.4185 19.207 13.0625C19.207 12.7065 18.9185 12.418 18.5625 12.418H3.4375C3.08155 12.418 2.79297 12.7065 2.79297 13.0625C2.79297 13.4185 3.08155 13.707 3.4375 13.707H3.82422V15.8555H3.22266C2.15647 15.8555 1.28906 14.9881 1.28906 13.9219V8.76562C1.28906 7.69944 2.15647 6.83203 3.22266 6.83203H18.7773C19.8435 6.83203 20.7109 7.69944 20.7109 8.76562V13.9219Z" fill="black"/>
<path d="M12.7188 15.168H9.28125C8.9253 15.168 8.63672 15.4565 8.63672 15.8125C8.63672 16.1685 8.9253 16.457 9.28125 16.457H12.7188C13.0747 16.457 13.3633 16.1685 13.3633 15.8125C13.3633 15.4565 13.0747 15.168 12.7188 15.168Z" fill="black"/>
<path d="M12.7188 17.918H9.28125C8.9253 17.918 8.63672 18.2065 8.63672 18.5625C8.63672 18.9185 8.9253 19.207 9.28125 19.207H12.7188C13.0747 19.207 13.3633 18.9185 13.3633 18.5625C13.3633 18.2065 13.0747 17.918 12.7188 17.918Z" fill="black"/>
<path d="M5.5 8.29297H3.4375C3.08155 8.29297 2.79297 8.58155 2.79297 8.9375C2.79297 9.29345 3.08155 9.58203 3.4375 9.58203H5.5C5.85595 9.58203 6.14453 9.29345 6.14453 8.9375C6.14453 8.58155 5.85595 8.29297 5.5 8.29297Z" fill="black"/>
</svg>
