<svg width="228" height="34" viewBox="0 0 228 34" fill="none" xmlns="http://www.w3.org/2000/svg">
<rect width="228" height="34" rx="5" fill="#2D2F46"/>
<g clip-path="url(#clip0)">
<path d="M14.4997 16.7501C13.1212 16.7501 11.9998 15.6287 11.9998 14.2502C11.9998 12.8718 13.1212 11.7503 14.4997 11.7503C15.8782 11.7503 16.9997 12.8718 16.9997 14.2502C16.9997 15.6287 15.8782 16.7501 14.4997 16.7501V16.7501ZM14.4997 12.5003C13.5348 12.5003 12.7497 13.2852 12.7497 14.2502C12.7497 15.2152 13.5348 16.0001 14.4997 16.0001C15.4646 16.0001 16.2497 15.2152 16.2497 14.2502C16.2497 13.2852 15.4646 12.5003 14.4997 12.5003V12.5003Z" fill="#4DCFE0"/>
<path d="M18.6247 22.25H10.375C10.168 22.25 10 22.082 10 21.875V20.125C10 18.8156 11.0655 17.7501 12.3749 17.7501H16.6248C17.9343 17.7501 18.9997 18.8156 18.9997 20.125V21.875C18.9997 22.082 18.8317 22.25 18.6247 22.25V22.25ZM10.75 21.5H18.2497V20.125C18.2497 19.2291 17.5207 18.5001 16.6248 18.5001H12.3749C11.479 18.5001 10.75 19.2291 10.75 20.125V21.5Z" fill="#4DCFE0"/>
</g>
<defs>
<clipPath id="clip0">
<rect width="12" height="12" fill="white" transform="translate(10 11)"/>
</clipPath>
</defs>
</svg>
