<svg width="12" height="12" viewBox="0 0 12 12" fill="none" xmlns="http://www.w3.org/2000/svg">
<g clip-path="url(#clip0)">
<path d="M4.49971 5.75009C3.12124 5.75009 1.99976 4.62869 1.99976 3.25023C1.99976 1.87176 3.12124 0.750275 4.49971 0.750275C5.87817 0.750275 6.99966 1.87176 6.99966 3.25023C6.99966 4.62869 5.87817 5.75009 4.49971 5.75009V5.75009ZM4.49971 1.50025C3.53477 1.50025 2.74973 2.2852 2.74973 3.25023C2.74973 4.21516 3.53477 5.00011 4.49971 5.00011C5.46464 5.00011 6.24968 4.21516 6.24968 3.25023C6.24968 2.2852 5.46464 1.50025 4.49971 1.50025V1.50025Z" fill="#4DCFE0"/>
<path d="M8.62473 11.25H0.374988C0.167994 11.25 0 11.082 0 10.875V9.12502C0 7.81558 1.06546 6.75012 2.3749 6.75012H6.62482C7.93426 6.75012 8.99972 7.81558 8.99972 9.12502V10.875C8.99972 11.082 8.83172 11.25 8.62473 11.25V11.25ZM0.749977 10.5H8.24974V9.12502C8.24974 8.22911 7.52073 7.5001 6.62482 7.5001H2.3749C1.47899 7.5001 0.749977 8.22911 0.749977 9.12502V10.5Z" fill="#4DCFE0"/>
</g>
<defs>
<clipPath id="clip0">
<rect width="12" height="12" fill="white"/>
</clipPath>
</defs>
</svg>
